<?xml version="1.0" encoding="UTF-8"?>
<svg version="1.1" xmlns="http://www.w3.org/2000/svg" width="350" height="350">
<path d="M0 0 C1.61171082 -0.00110275 1.61171082 -0.00110275 3.25598145 -0.00222778 C18.98625027 0.02611901 33.65932801 0.60704662 48.75 5.4375 C49.61818359 5.69982422 50.48636719 5.96214844 51.38085938 6.23242188 C63.0991985 9.81231009 73.99808302 14.59572894 84.75 20.4375 C85.35537598 20.75831543 85.96075195 21.07913086 86.58447266 21.40966797 C100.6164227 28.86284025 112.32321917 38.50871063 123.75 49.4375 C124.6884375 50.32308594 125.626875 51.20867188 126.59375 52.12109375 C152.7004678 77.38447657 167.85047223 111.19683507 174.75 146.4375 C174.926521 147.3049585 175.10304199 148.17241699 175.28491211 149.06616211 C175.89378347 153.47976037 175.93210934 157.81891704 175.953125 162.26953125 C175.95882507 163.21954514 175.96452515 164.16955902 175.97039795 165.14836121 C175.97982374 167.15968727 175.98637228 169.17102861 175.99023438 171.18237305 C175.99984704 174.2019505 176.03085461 177.2208191 176.0625 180.24023438 C176.12750272 191.98395924 175.35879918 202.98056222 172.75 214.4375 C172.52554199 215.42451904 172.30108398 216.41153809 172.06982422 217.4284668 C171.45699475 219.93112482 170.78422738 222.40173269 170.0625 224.875 C169.80903809 225.74914551 169.55557617 226.62329102 169.29443359 227.52392578 C166.57559262 236.53834333 162.90595991 245.00264625 158.75 253.4375 C158.26660156 254.43088379 158.26660156 254.43088379 157.7734375 255.44433594 C137.4474684 296.77793773 99.96939941 327.76938824 56.78515625 342.83203125 C42.70628039 347.48779583 28.33676183 350.58763674 13.49609375 350.60546875 C12.51818375 350.60879715 11.54027374 350.61212555 10.5327301 350.61555481 C8.46770698 350.620601 6.40267576 350.62296385 4.33764648 350.62280273 C1.22170073 350.62497614 -1.89388299 350.64312062 -5.00976562 350.66210938 C-27.0267696 350.72478504 -45.75839721 346.38802579 -66.3125 338.75 C-67.17810547 338.42966797 -68.04371094 338.10933594 -68.93554688 337.77929688 C-71.04084627 336.99998716 -73.14565114 336.21937196 -75.25 335.4375 C-75.25 334.7775 -75.25 334.1175 -75.25 333.4375 C-75.78625 333.33308594 -76.3225 333.22867187 -76.875 333.12109375 C-79.87825606 332.25666972 -82.46824209 330.92217373 -85.25 329.5 C-86.28125 328.97535156 -87.3125 328.45070313 -88.375 327.91015625 C-89.798125 327.18119141 -89.798125 327.18119141 -91.25 326.4375 C-91.95125 326.12683594 -92.6525 325.81617188 -93.375 325.49609375 C-95.75326165 324.15336686 -97.33925472 322.38416154 -99.25 320.4375 C-100.9757994 319.11367251 -102.7276859 317.82337489 -104.5 316.5625 C-105.9540625 315.51449219 -105.9540625 315.51449219 -107.4375 314.4453125 C-109.11935392 313.24465567 -110.80544254 312.0498474 -112.5 310.8671875 C-116.85250068 307.75582959 -120.21952909 304.37721733 -123.640625 300.265625 C-125.61921043 298.01810562 -127.90387741 296.28596023 -130.25 294.4375 C-130.25 293.7775 -130.25 293.1175 -130.25 292.4375 C-130.91 292.4375 -131.57 292.4375 -132.25 292.4375 C-132.745 290.9525 -132.745 290.9525 -133.25 289.4375 C-134.56631411 288.08736197 -135.90222752 286.75623609 -137.25 285.4375 C-150.21304774 268.94636504 -159.89802503 250.623917 -166.6875 230.8125 C-166.97431641 230.0184375 -167.26113281 229.224375 -167.55664062 228.40625 C-173.17665176 211.93423517 -174.88231951 195.33298736 -174.66162109 178.02392578 C-174.62475823 175.04294865 -174.62060639 172.06321468 -174.62109375 169.08203125 C-174.57288592 155.68655781 -174.25418974 142.33347239 -170 129.5 C-169.78239014 128.84290039 -169.56478027 128.18580078 -169.34057617 127.50878906 C-168.6597566 125.47913043 -167.9565262 123.4583328 -167.25 121.4375 C-167.03359863 120.79731934 -166.81719727 120.15713867 -166.59423828 119.49755859 C-162.80453527 108.3325323 -157.71573032 97.93310973 -152.29980469 87.47363281 C-151.26655771 85.46961425 -150.25423726 83.4561871 -149.25 81.4375 C-148.59 81.4375 -147.93 81.4375 -147.25 81.4375 C-146.99347656 80.71949219 -146.73695313 80.00148438 -146.47265625 79.26171875 C-142.87129467 70.94291867 -136.15167856 63.99075746 -130.03515625 57.43359375 C-128.20116302 55.55890655 -128.20116302 55.55890655 -127.25 53.4375 C-126.59 53.4375 -125.93 53.4375 -125.25 53.4375 C-125.25 52.7775 -125.25 52.1175 -125.25 51.4375 C-124.59 51.4375 -123.93 51.4375 -123.25 51.4375 C-123.25 50.7775 -123.25 50.1175 -123.25 49.4375 C-121.73772933 48.1072891 -120.16330976 46.84722409 -118.5625 45.625 C-115.81825237 43.5231096 -113.28581007 41.47413194 -110.8671875 39 C-91.23207721 19.7751756 -61.66794389 8.07387499 -35.25 2.4375 C-34.45368164 2.25276123 -33.65736328 2.06802246 -32.83691406 1.87768555 C-22.03623144 -0.30807375 -10.97160049 -0.00324331 0 0 Z M-32.25 27.4375 C-33.42320801 27.72681396 -33.42320801 27.72681396 -34.62011719 28.02197266 C-42.4224084 29.99185806 -49.89469675 32.12720078 -57.25 35.4375 C-58.18912231 35.84669678 -58.18912231 35.84669678 -59.1472168 36.26416016 C-97.38796182 52.98416002 -126.20476533 83.66623876 -141.484375 122.39892578 C-143.82652787 128.63520654 -145.66863699 134.96950257 -147.25 141.4375 C-147.41516113 142.09814453 -147.58032227 142.75878906 -147.75048828 143.43945312 C-152.69744086 164.20949187 -152.16882165 188.70195558 -147.25 209.4375 C-147.08371094 210.14438965 -146.91742188 210.8512793 -146.74609375 211.57958984 C-140.05058275 238.88859534 -125.48440047 262.22116317 -106.25 282.4375 C-105.61835937 283.13359375 -104.98671875 283.8296875 -104.3359375 284.546875 C-79.97268296 310.52003623 -41.68783128 325.5472067 -6.48828125 326.72265625 C31.54718745 327.44977828 68.81269304 316.9833722 97.75 291.4375 C98.64847656 290.64859375 99.54695312 289.8596875 100.47265625 289.046875 C102.92215009 286.86794381 105.34490146 284.66524415 107.75 282.4375 C108.32234375 281.90769531 108.8946875 281.37789063 109.484375 280.83203125 C110.61823952 279.74594192 111.69383114 278.59928575 112.75 277.4375 C112.75 276.7775 112.75 276.1175 112.75 275.4375 C113.74 275.1075 114.73 274.7775 115.75 274.4375 C117.39956419 272.59737244 118.89359605 270.78102325 120.375 268.8125 C120.81303955 268.23419434 121.2510791 267.65588867 121.70239258 267.06005859 C136.75546729 246.79599151 146.80114596 223.3806212 150.75 198.4375 C150.935625 197.28894531 151.12125 196.14039063 151.3125 194.95703125 C152.01393048 189.09794092 151.93600586 183.19632807 151.93530273 177.3034668 C151.93747672 175.27175532 151.95564993 173.24059939 151.97460938 171.20898438 C152.02956576 158.50478681 150.10564293 146.66283227 146.75 134.4375 C146.52441406 133.59574219 146.29882812 132.75398438 146.06640625 131.88671875 C140.17257144 111.00855817 128.75398982 90.19168931 113.75 74.4375 C113.09 74.4375 112.43 74.4375 111.75 74.4375 C111.75 73.7775 111.75 73.1175 111.75 72.4375 C111.09 72.4375 110.43 72.4375 109.75 72.4375 C109.48960937 71.85355469 109.22921875 71.26960938 108.9609375 70.66796875 C107.67216506 68.29413306 106.2749146 66.66235946 104.375 64.75 C103.78976562 64.14800781 103.20453125 63.54601563 102.6015625 62.92578125 C100.8575009 61.29706965 100.8575009 61.29706965 98.6484375 60.98046875 C98.02195312 60.80128906 97.39546875 60.62210938 96.75 60.4375 C96.45810791 59.82414795 96.16621582 59.2107959 95.86547852 58.57885742 C94.55879859 56.07045522 93.35089292 55.17838224 91.00390625 53.6328125 C89.87964233 52.88559937 89.87964233 52.88559937 88.73266602 52.12329102 C87.93401123 51.60822998 87.13535645 51.09316895 86.3125 50.5625 C85.49644287 50.02874756 84.68038574 49.49499512 83.83959961 48.94506836 C77.96061329 45.13464662 72.03017862 41.55270746 65.75 38.4375 C64.96753906 38.02371094 64.18507812 37.60992187 63.37890625 37.18359375 C50.7825381 30.91488636 36.30724093 27.31618514 22.3671875 25.76171875 C19.75 25.4375 19.75 25.4375 16.75 24.4375 C11.9011918 24.16814444 7.04309019 24.19163111 2.1875 24.1875 C1.13231674 24.18648788 1.13231674 24.18648788 0.05581665 24.18545532 C-10.96294724 24.20227978 -21.52244215 24.77692523 -32.25 27.4375 Z " fill="#FEDF59" transform="translate(174.25,-0.43750000000000006)"/>
<path d="M0 0 C0.33 0.66 0.66 1.32 1 2 C0.06421005 4.35981813 -0.93347808 6.69631264 -2 9 C0.22308063 10.48907295 2.45268345 11.96622717 4.6875 13.4375 C5.31333984 13.85837891 5.93917969 14.27925781 6.58398438 14.71289062 C10.03381677 16.97063434 12.8029063 18.55862303 17 19 C16.40304654 22.99560847 15.09322307 26.49701047 13.62548828 30.23144531 C6.80427221 47.63779679 3.7663343 65.07187112 3.75 83.75 C3.74932526 84.44152161 3.74865051 85.13304321 3.74795532 85.84552002 C3.7654054 97.12153442 4.38985553 107.9968024 7 119 C7.16628906 119.70688965 7.33257813 120.4137793 7.50390625 121.14208984 C14.17242703 148.34101024 28.66689195 171.97630636 48 192 C48.54003662 192.56340088 49.08007324 193.12680176 49.63647461 193.70727539 C75.52127273 220.22314467 113.67541145 234.65264708 150.3503418 235.35375977 C187.09037781 235.56757896 223.11707641 224.57262216 251 200 C251.89847656 199.22269531 252.79695313 198.44539062 253.72265625 197.64453125 C258.24112253 193.67174131 262.25938886 189.70248258 266 185 C267.66666667 183.33333333 269.33333333 181.66666667 271 180 C272.70768674 178.030312 274.35399152 176.02223899 276 174 C276.19722656 174.57363281 276.39445312 175.14726562 276.59765625 175.73828125 C278.5513652 178.88924917 281.31011466 180.36575532 284.4375 182.1875 C285.31631836 182.72020508 285.31631836 182.72020508 286.21289062 183.26367188 C288.78444117 184.80193197 291.14848558 186.04949519 294 187 C295.00390625 188.6640625 295.00390625 188.6640625 295 191 C293.3960223 193.33361823 291.82824521 195.29364731 289.9375 197.375 C289.39601318 197.98569336 288.85452637 198.59638672 288.29663086 199.22558594 C259.20947491 231.65442315 220.92576964 254.85338394 177 260 C173.5817336 260.14794702 170.16723908 260.16385803 166.74609375 260.16796875 C165.76818375 260.17129715 164.79027374 260.17462555 163.7827301 260.17805481 C161.71770698 260.183101 159.65267576 260.18546385 157.58764648 260.18530273 C154.47170073 260.18747614 151.35611701 260.20562062 148.24023438 260.22460938 C126.2232304 260.28728504 107.49160279 255.95052579 86.9375 248.3125 C86.07189453 247.99216797 85.20628906 247.67183594 84.31445312 247.34179688 C82.20915373 246.56248716 80.10434886 245.78187196 78 245 C78 244.34 78 243.68 78 243 C77.46375 242.89558594 76.9275 242.79117188 76.375 242.68359375 C73.37174394 241.81916972 70.78175791 240.48467373 68 239.0625 C66.96875 238.53785156 65.9375 238.01320313 64.875 237.47265625 C63.92625 236.98667969 62.9775 236.50070312 62 236 C61.29875 235.68933594 60.5975 235.37867188 59.875 235.05859375 C57.49673835 233.71586686 55.91074528 231.94666154 54 230 C52.2742006 228.67617251 50.5223141 227.38587489 48.75 226.125 C47.2959375 225.07699219 47.2959375 225.07699219 45.8125 224.0078125 C44.13064608 222.80715567 42.44455746 221.6123474 40.75 220.4296875 C36.39749932 217.31832959 33.03047091 213.93971733 29.609375 209.828125 C27.63078957 207.58060562 25.34612259 205.84846023 23 204 C23 203.34 23 202.68 23 202 C22.34 202 21.68 202 21 202 C20.67 201.01 20.34 200.02 20 199 C18.68368589 197.64986197 17.34777248 196.31873609 16 195 C3.03695226 178.50886504 -6.64802503 160.186417 -13.4375 140.375 C-13.72431641 139.5809375 -14.01113281 138.786875 -14.30664062 137.96875 C-19.92665176 121.49673517 -21.63231951 104.89548736 -21.41162109 87.58642578 C-21.37475823 84.60544865 -21.37060639 81.62571468 -21.37109375 78.64453125 C-21.32288592 65.24905781 -21.00418974 51.89597239 -16.75 39.0625 C-16.53384033 38.40902588 -16.31768066 37.75555176 -16.0949707 37.08227539 C-15.41337903 35.04867799 -14.70882819 33.02424502 -14 31 C-13.77296387 30.33323242 -13.54592773 29.66646484 -13.31201172 28.97949219 C-9.81339223 18.75808372 -5.31894251 9.39589845 0 0 Z " fill="#EFBD1F" transform="translate(21,90)"/>
<path d="M0 0 C0.53093262 0.43844238 1.06186523 0.87688477 1.60888672 1.32861328 C8.61932142 7.21176465 14.45358795 13.74147924 20 21 C20.66644531 21.85078125 21.33289063 22.7015625 22.01953125 23.578125 C45.08562051 53.96894873 54.45417775 91.92335019 49.6640625 129.64550781 C45.27081748 159.98355445 32.20553269 186.89062493 11 209 C10.13117188 209.94359375 9.26234375 210.8871875 8.3671875 211.859375 C-16.03940493 237.84783693 -51.33976606 252.35297305 -86.69921875 253.91015625 C-88.33310547 253.95462891 -88.33310547 253.95462891 -90 254 C-90.91394531 254.03996094 -91.82789063 254.07992188 -92.76953125 254.12109375 C-122.74828823 254.88517001 -151.38747285 244.63330464 -176 228 C-176.73734375 227.51144531 -177.4746875 227.02289063 -178.234375 226.51953125 C-179.86586525 225.4068549 -181.44119243 224.21240589 -183 223 C-183 222.34 -183 221.68 -183 221 C-183.721875 220.79375 -184.44375 220.5875 -185.1875 220.375 C-188.19749085 218.90344892 -189.6104662 217.2404525 -191.63330078 214.61987305 C-193.04858563 212.94241414 -194.52347522 211.69236846 -196.2421875 210.33203125 C-200.39427059 206.83125531 -203.5245128 202.78242099 -206.75 198.4375 C-207.59498047 197.3247168 -207.59498047 197.3247168 -208.45703125 196.18945312 C-216 186.17674165 -216 186.17674165 -216 183 C-216.66 182.67 -217.32 182.34 -218 182 C-219.00561523 180.26928711 -219.00561523 180.26928711 -220.05859375 178.02734375 C-220.44466797 177.20943359 -220.83074219 176.39152344 -221.22851562 175.54882812 C-221.62748047 174.68708984 -222.02644531 173.82535156 -222.4375 172.9375 C-222.83259766 172.10283203 -223.22769531 171.26816406 -223.63476562 170.40820312 C-237.19654587 141.45684862 -241.31326074 107.07568639 -233.25 76 C-232.97833008 74.94401611 -232.70666016 73.88803223 -232.42675781 72.80004883 C-230.51271923 65.5494777 -228.37891548 58.71473254 -225 52 C-224.48179687 50.94353271 -224.48179687 50.94353271 -223.953125 49.86572266 C-218.81498486 39.44172086 -213.34290771 30.03847672 -206 21 C-204.74832261 19.35544198 -203.49820299 17.7096966 -202.25 16.0625 C-199.68348615 12.79443339 -197.04947849 9.83672418 -194 7 C-193.3503125 6.36835937 -192.700625 5.73671875 -192.03125 5.0859375 C-138.72984014 -45.19505914 -55.81702727 -46.10564518 0 0 Z M-185.76171875 16.30834961 C-193.74845276 24.10169288 -200.20177567 32.48270054 -206 42 C-206.5580835 42.90371338 -206.5580835 42.90371338 -207.12744141 43.82568359 C-213.61429273 54.51974649 -217.55732279 66.02025156 -221 78 C-221.36351562 79.24523437 -221.72703125 80.49046875 -222.1015625 81.7734375 C-229.69954608 113.94060161 -222.84667347 150.1960768 -206.05908203 178.30957031 C-200.6465846 186.94860493 -193.97898061 194.60545838 -187 202 C-186.31550781 202.74894531 -185.63101563 203.49789062 -184.92578125 204.26953125 C-164.84323353 225.46571378 -133.90647543 239.58086931 -104.76879883 241.17700195 C-88.76429633 241.47314129 -73.52276993 241.35181087 -58 237 C-57.3301709 236.81808105 -56.6603418 236.63616211 -55.97021484 236.44873047 C-41.03187523 232.2811907 -27.55765255 224.990982 -15 216 C-14.16984375 215.41734375 -13.3396875 214.8346875 -12.484375 214.234375 C-9.65262613 212.22687041 -9.65262613 212.22687041 -7 210 C-7 209.34 -7 208.68 -7 208 C-6.43667969 207.76023437 -5.87335938 207.52046875 -5.29296875 207.2734375 C11.19258517 198.11791693 23.72480231 174.28970551 30 157 C30.64582031 155.25976562 30.64582031 155.25976562 31.3046875 153.484375 C42.08913682 122.98161302 42.02802062 87.56538522 28 58 C23.01379615 47.21112463 23.01379615 47.21112463 17 37 C16.34 37 15.68 37 15 37 C14.73960937 36.27167969 14.47921875 35.54335937 14.2109375 34.79296875 C12.96769574 31.9254918 11.53949689 29.77459316 9.625 27.3125 C8.74714844 26.16201172 8.74714844 26.16201172 7.8515625 24.98828125 C5.98014771 22.97868182 4.45423439 22.14356879 2 21 C1.33333333 19.66666667 0.66666667 18.33333333 0 17 C-2.0335948 15.73195434 -2.0335948 15.73195434 -4 15 C-4 14.34 -4 13.68 -4 13 C-4.66 13 -5.32 13 -6 13 C-6.19335938 12.44828125 -6.38671875 11.8965625 -6.5859375 11.328125 C-8.61330678 7.9902463 -11.50862457 6.00014607 -14.625 3.75 C-15.29015625 3.26764893 -15.9553125 2.78529785 -16.640625 2.28833008 C-23.68917017 -2.6854151 -31.13125474 -6.50473146 -39 -10 C-39.94359375 -10.42321533 -39.94359375 -10.42321533 -40.90625 -10.85498047 C-90.61546652 -32.82282954 -146.91158236 -20.49626824 -185.76171875 16.30834961 Z " fill="#FDE260" transform="translate(268,65)"/>
<path d="M0 0 C12.54 0 25.08 0 38 0 C51.32574032 40.56947608 51.32574032 40.56947608 56 59 C57.91388009 57.08611991 58.34595501 54.02434681 59.14453125 51.5078125 C59.35559006 50.84723846 59.56664886 50.18666443 59.78410339 49.506073 C60.46314663 47.37996349 61.13817898 45.25261153 61.8125 43.125 C65.82092721 30.49486617 70.13489286 18.05954559 75.046875 5.75 C76.16373966 3.01265236 76.16373966 3.01265236 76 0 C88.54 0 101.08 0 114 0 C114 4.29 114 8.58 114 13 C110.37 13 106.74 13 103 13 C103 34.45 103 55.9 103 78 C106.63 78 110.26 78 114 78 C114 82.29 114 86.58 114 91 C110.09139187 92.30286938 106.45657086 92.01353276 102.39453125 91.87890625 C101.13572395 91.84348976 101.13572395 91.84348976 99.85148621 91.80735779 C97.1716488 91.73079724 94.49210593 91.64674019 91.8125 91.5625 C89.99545711 91.50927169 88.17839986 91.45653134 86.36132812 91.40429688 C81.90736565 91.27519238 77.45365278 91.13936429 73 91 C71.97421721 86.23028271 72.26689715 82.80589646 73 78 C76.63 78 80.26 78 84 78 C83.9285376 77.21995605 83.8570752 76.43991211 83.78344727 75.63623047 C82.91719122 65.11859595 82.88468071 54.67091952 82.9375 44.125 C82.94252982 42.3580742 82.94709008 40.591147 82.95117188 38.82421875 C82.9620491 34.54944374 82.97923023 30.27473792 83 26 C80.70309302 32.86741417 78.40786806 39.73538815 76.11471081 46.6040554 C75.0495288 49.79441236 73.98379705 52.98458335 72.91674805 56.17431641 C71.68654715 59.85271044 70.45832611 63.53176062 69.23046875 67.2109375 C68.85222458 68.34050873 68.47398041 69.47007996 68.08427429 70.63388062 C66.14580297 76.44888805 64.2876734 82.26981869 62.60517883 88.16445923 C62 90 62 90 61 91 C58.64686445 91.07271741 56.29166332 91.08370868 53.9375 91.0625 C52.00197266 91.04896484 52.00197266 91.04896484 50.02734375 91.03515625 C49.02832031 91.02355469 48.02929688 91.01195312 47 91 C45.68373308 87.38026598 45 84.90432869 45 81 C44.01 80.505 44.01 80.505 43 80 C42.25390625 77.8125 42.25390625 77.8125 41.5625 75 C40.54401853 70.90279453 39.32341884 66.92496013 37.9699707 62.92626953 C36.70762472 59.1179436 35.5031175 55.29247614 34.30078125 51.46484375 C33.97855087 50.43914024 33.97855087 50.43914024 33.64981079 49.39271545 C32.87003328 46.90785502 32.0913275 44.42265836 31.3125 41.9375 C29.559375 36.348125 27.80625 30.75875 26 25 C25.67 42.49 25.34 59.98 25 78 C28.63 78 32.26 78 36 78 C36 82.29 36 86.58 36 91 C31.23268509 91.79055976 26.79824249 92.0719297 21.97265625 91.87890625 C20.04389648 91.80639648 20.04389648 91.80639648 18.07617188 91.73242188 C16.73827544 91.67591872 15.40038487 91.6192764 14.0625 91.5625 C12.69728806 91.50918787 11.33205364 91.45644834 9.96679688 91.40429688 C6.64426693 91.2751526 3.32207839 91.1402083 0 91 C-0.19466332 89.20909747 -0.38051213 87.41723495 -0.5625 85.625 C-0.66691406 84.62726563 -0.77132812 83.62953125 -0.87890625 82.6015625 C-1 80 -1 80 0 78 C3.63 78 7.26 78 11 78 C11 56.55 11 35.1 11 13 C7.37 13 3.74 13 0 13 C0 8.71 0 4.42 0 0 Z " fill="#F4DB5C" transform="translate(155,131)"/>
<path d="M0 0 C0.66 0.33 1.32 0.66 2 1 C1.56429687 1.85078125 1.12859375 2.7015625 0.6796875 3.578125 C-2.97757928 10.93500478 -5.94375426 18.31565298 -8.3125 26.1875 C-8.67529053 27.37811035 -8.67529053 27.37811035 -9.04541016 28.59277344 C-12.40412065 40.16718803 -13.41184944 51.47266481 -13.375 63.5 C-13.37412384 64.20176361 -13.37324768 64.90352722 -13.37234497 65.6265564 C-13.22852144 100.68018382 0.08205923 130.61417117 24 156 C24.61101562 156.67546875 25.22203125 157.3509375 25.8515625 158.046875 C45.47127531 178.91890991 76.7477113 192.616705 105.23120117 194.17700195 C121.23570367 194.47314129 136.47723007 194.35181087 152 190 C152.6698291 189.81808105 153.3396582 189.63616211 154.02978516 189.44873047 C170.10442895 184.96418138 185.90536758 176.85449401 198.625 166 C201 164 201 164 203 164 C203 163.34 203 162.68 203 162 C204.3984375 160.66015625 204.3984375 160.66015625 206.375 159.0625 C213.09684159 153.33162263 219.43108943 146.91387334 224 139.3125 C224.66 138.219375 225.32 137.12625 226 136 C226.66 136 227.32 136 228 136 C226.66666667 139.33333333 225.33333333 142.66666667 224 146 C226.38573379 147.89213369 228.07175348 149.02391783 231 150 C228.79700216 154.77142186 225.55707243 158.17538708 222 162 C221.56284668 162.47646973 221.12569336 162.95293945 220.67529297 163.44384766 C195.51433529 190.63349888 160.23265715 206.28372563 123.30078125 207.91015625 C122.21152344 207.93980469 121.12226563 207.96945312 120 208 C119.08605469 208.03996094 118.17210937 208.07992187 117.23046875 208.12109375 C87.25171177 208.88517001 58.61252715 198.63330464 34 182 C33.26265625 181.51144531 32.5253125 181.02289063 31.765625 180.51953125 C30.13413475 179.4068549 28.55880757 178.21240589 27 177 C27 176.34 27 175.68 27 175 C26.278125 174.79375 25.55625 174.5875 24.8125 174.375 C21.80250915 172.90344892 20.3895338 171.2404525 18.36669922 168.61987305 C16.95141437 166.94241414 15.47652478 165.69236846 13.7578125 164.33203125 C9.60572941 160.83125531 6.4754872 156.78242099 3.25 152.4375 C2.40501953 151.3247168 2.40501953 151.3247168 1.54296875 150.18945312 C-6 140.17674165 -6 140.17674165 -6 137 C-6.66 136.67 -7.32 136.34 -8 136 C-9.00561523 134.26928711 -9.00561523 134.26928711 -10.05859375 132.02734375 C-10.44466797 131.20943359 -10.83074219 130.39152344 -11.22851562 129.54882812 C-11.62748047 128.68708984 -12.02644531 127.82535156 -12.4375 126.9375 C-12.83259766 126.10283203 -13.22769531 125.26816406 -13.63476562 124.40820312 C-27.1982291 95.45325531 -31.30838895 61.07948388 -23.25 30 C-22.98340576 28.95706787 -22.71681152 27.91413574 -22.44213867 26.83959961 C-18.38972201 11.4167983 -18.38972201 11.4167983 -15 6 C-12 5 -12 5 -9.95703125 5.77734375 C-9.24933594 6.16019531 -8.54164062 6.54304688 -7.8125 6.9375 C-7.09707031 7.31777344 -6.38164063 7.69804688 -5.64453125 8.08984375 C-5.10183594 8.39019531 -4.55914062 8.69054687 -4 9 C-3.71125 8.071875 -3.4225 7.14375 -3.125 6.1875 C-2 3 -2 3 0 0 Z " fill="#ECBB20" transform="translate(58,111)"/>
<path d="M0 0 C25.74 0 51.48 0 78 0 C78 9.24 78 18.48 78 28 C67.875 29.125 67.875 29.125 64 28 C63.83222817 26.20843648 63.66581706 24.4167455 63.5 22.625 C63.4071875 21.62726563 63.314375 20.62953125 63.21875 19.6015625 C63 17 63 17 63 15 C58.05 14.67 53.1 14.34 48 14 C48 35.12 48 56.24 48 78 C51.96 78 55.92 78 60 78 C60 82.29 60 86.58 60 91 C54.92150686 92.69283105 52.19683954 93.2558692 47.0625 93.265625 C45.75539062 93.26820313 44.44828125 93.27078125 43.1015625 93.2734375 C42.42770508 93.26924805 41.75384766 93.26505859 41.05957031 93.26074219 C39.00555897 93.25002899 36.95242204 93.26066763 34.8984375 93.2734375 C33.59132812 93.27085937 32.28421875 93.26828125 30.9375 93.265625 C29.75027344 93.26336914 28.56304687 93.26111328 27.33984375 93.25878906 C24 93 24 93 18 91 C18 86.71 18 82.42 18 78 C21.63 78 25.26 78 29 78 C29 56.88 29 35.76 29 14 C24.05 14 19.1 14 14 14 C14 18.62 14 23.24 14 28 C9.38 28 4.76 28 0 28 C-0.73002867 24.34985663 -1.12795441 21.60998566 -1.1328125 17.98828125 C-1.13410156 17.06595703 -1.13539062 16.14363281 -1.13671875 15.19335938 C-1.13285156 14.24267578 -1.12898438 13.29199219 -1.125 12.3125 C-1.12886719 11.35021484 -1.13273437 10.38792969 -1.13671875 9.39648438 C-1.13542969 8.47802734 -1.13414063 7.55957031 -1.1328125 6.61328125 C-1.13168457 5.77579346 -1.13055664 4.93830566 -1.12939453 4.07543945 C-1 2 -1 2 0 0 Z " fill="#F2D350" transform="translate(75,131)"/>
<path d="M0 0 C12.54 0 25.08 0 38 0 C38 4.29 38 8.58 38 13 C34.37 13 30.74 13 27 13 C27 34.45 27 55.9 27 78 C30.63 78 34.26 78 38 78 C38 82.29 38 86.58 38 91 C34.09139187 92.30286938 30.45657086 92.01353276 26.39453125 91.87890625 C25.13572395 91.84348976 25.13572395 91.84348976 23.85148621 91.80735779 C21.1716488 91.73079724 18.49210593 91.64674019 15.8125 91.5625 C13.99545711 91.50927169 12.17839986 91.45653134 10.36132812 91.40429688 C5.90736565 91.27519238 1.45365278 91.13936429 -3 91 C-4.02578279 86.23028271 -3.73310285 82.80589646 -3 78 C0.63 78 4.26 78 8 78 C7.9285376 77.21995605 7.8570752 76.43991211 7.78344727 75.63623047 C6.91719122 65.11859595 6.88468071 54.67091952 6.9375 44.125 C6.94252982 42.3580742 6.94709008 40.591147 6.95117188 38.82421875 C6.9620491 34.54944374 6.97923023 30.27473792 7 26 C5.35837891 26.31130859 5.35837891 26.31130859 3.68359375 26.62890625 C0 27 0 27 -2.9375 24.9375 C-5.39849126 21.43245184 -5.3699786 20.19646965 -5 16 C-3.90625 12.67578125 -3.90625 12.67578125 -2.5 9.3125 C-0.55083429 4.79767595 -0.55083429 4.79767595 0 0 Z " fill="#F5DD60" transform="translate(231,131)"/>
<path d="M0 0 C0.33 0 0.66 0 1 0 C0.67 2.64 0.34 5.28 0 8 C0.99 8.33 1.98 8.66 3 9 C3.66 9.66 4.32 10.32 5 11 C6.0209375 11.495 6.0209375 11.495 7.0625 12 C9 13 9 13 10 15 C10.99 15 11.98 15 13 15 C15.02417134 15.95012124 17.02583732 16.94991347 19 18 C19.66 18.33 20.32 18.66 21 19 C19.80213978 25.33863795 17.99190637 31.08295712 15.4375 37 C15.08816406 37.81597656 14.73882812 38.63195312 14.37890625 39.47265625 C9.0104994 51.78953297 3.07957027 64.91884644 -6 75 C-6.66 75 -7.32 75 -8 75 C-8 74.34 -8 73.68 -8 73 C-8.5887793 72.87310791 -9.17755859 72.74621582 -9.78417969 72.61547852 C-13.23913366 71.65581137 -16.18051444 69.74363022 -19.25 67.9375 C-19.8996875 67.56044922 -20.549375 67.18339844 -21.21875 66.79492188 C-22.81505091 65.86765885 -24.40787529 64.93441544 -26 64 C-26.34472806 59.80458616 -25.65584725 58.01961694 -23.0625 54.75 C-11.04589354 38.33054785 -4.83633773 19.54449423 0 0 Z " fill="#F4DB5D" transform="translate(323,204)"/>
<path d="M0 0 C0 3 0 3 -2 6 C-2 6.66 -2 7.32 -2 8 C-1.4225 8.268125 -0.845 8.53625 -0.25 8.8125 C2 10 2 10 3.75 11.375 C6.43651221 13.31525882 9.25415451 14.53749479 12.29296875 15.83984375 C14 17 14 17 15.09765625 18.765625 C14.95965583 21.9230746 13.25151619 23.13886554 11.02441406 25.21020508 C10.43885742 25.7389624 9.85330078 26.26771973 9.25 26.8125 C-1.51876462 37.07675297 -9.21519426 48.77461795 -16.22265625 61.83203125 C-18 65 -18 65 -20 67 C-27.5985115 64.88238204 -33.50161164 61.43347991 -40 57 C-38.17778624 50.38757278 -35.94776396 44.19479329 -33 38 C-32.34 38 -31.68 38 -31 38 C-30.74347656 37.28199219 -30.48695312 36.56398437 -30.22265625 35.82421875 C-26.62129467 27.50541867 -19.90167856 20.55325746 -13.78515625 13.99609375 C-11.95116302 12.12140655 -11.95116302 12.12140655 -11 10 C-10.34 10 -9.68 10 -9 10 C-9 9.34 -9 8.68 -9 8 C-8.34 8 -7.68 8 -7 8 C-7 7.34 -7 6.68 -7 6 C-5.46875 4.4921875 -5.46875 4.4921875 -3.5 2.875 C-2.8503125 2.33617187 -2.200625 1.79734375 -1.53125 1.2421875 C-1.0259375 0.83226562 -0.520625 0.42234375 0 0 Z " fill="#F4DB5D" transform="translate(58,43)"/>
<path d="M0 0 C0.98742187 0.58910156 1.97484375 1.17820313 2.9921875 1.78515625 C4.28621126 2.54469193 5.58049567 3.30378366 6.875 4.0625 C7.52597656 4.45244141 8.17695312 4.84238281 8.84765625 5.24414062 C10.53065725 6.22444533 12.26296199 7.11898432 14 8 C14.66 7.67 15.32 7.34 16 7 C16 23.17 16 39.34 16 56 C19.96 56 23.92 56 28 56 C28 60.29 28 64.58 28 69 C22.92150686 70.69283105 20.19683954 71.2558692 15.0625 71.265625 C13.75539063 71.26820313 12.44828125 71.27078125 11.1015625 71.2734375 C10.42770508 71.26924805 9.75384766 71.26505859 9.05957031 71.26074219 C7.00555897 71.25002899 4.95242204 71.26066763 2.8984375 71.2734375 C1.59132813 71.27085937 0.28421875 71.26828125 -1.0625 71.265625 C-2.24972656 71.26336914 -3.43695313 71.26111328 -4.66015625 71.25878906 C-8 71 -8 71 -14 69 C-14 64.71 -14 60.42 -14 56 C-10.04 56 -6.08 56 -2 56 C-2.00523682 54.58259521 -2.01047363 53.16519043 -2.01586914 51.70483398 C-2.03401638 46.42879878 -2.04546752 41.15276632 -2.05493164 35.87670898 C-2.05994964 33.59643082 -2.0667655 31.31615586 -2.07543945 29.03588867 C-2.08761607 25.75178231 -2.09325375 22.46771863 -2.09765625 19.18359375 C-2.10281754 18.16978134 -2.10797882 17.15596893 -2.11329651 16.11143494 C-2.11370082 10.97016936 -1.98216061 6.05474412 -1 1 C-0.67 0.67 -0.34 0.34 0 0 Z " fill="#E9BD2E" transform="translate(107,153)"/>
<path d="M0 0 C0.495 1.485 0.495 1.485 1 3 C2.64206724 3.72514648 4.31585836 4.37880022 6 5 C8.28855941 6.25274224 10.52031326 7.52716689 12.75 8.875 C13.33910156 9.21402344 13.92820313 9.55304687 14.53515625 9.90234375 C18.84445267 12.50773446 18.84445267 12.50773446 19.67285156 15.12939453 C19.78081055 15.74669434 19.88876953 16.36399414 20 17 C18.80246094 17.53367187 17.60492188 18.06734375 16.37109375 18.6171875 C1.83788714 25.21773551 -10.84073507 32.94162163 -22.92578125 43.3828125 C-25 45 -25 45 -27 45 C-28 44 -29 43 -30 42 C-30.721875 41.566875 -31.44375 41.13375 -32.1875 40.6875 C-34.64013393 39.21591964 -36.93583051 37.67663443 -39.25 36 C-39.93578125 35.505 -40.6215625 35.01 -41.328125 34.5 C-43 33 -43 33 -44 30 C-43.525625 29.566875 -43.05125 29.13375 -42.5625 28.6875 C-40.76313043 26.97690387 -40.76313043 26.97690387 -40 24 C-31.15992948 15.65104451 -12.70978662 -1.08217386 0 0 Z " fill="#FEF17D" transform="translate(99,18)"/>
<path d="M0 0 C0.66 0.99 1.32 1.98 2 3 C4.06797526 4.23910961 4.06797526 4.23910961 6.5 5.3125 C10.29749945 7.13928545 13.98526642 9.06172968 17.625 11.1875 C18.46289062 11.67605469 19.30078125 12.16460937 20.1640625 12.66796875 C20.76992188 13.10753906 21.37578125 13.54710937 22 14 C22 14.66 22 15.32 22 16 C22.66 16 23.32 16 24 16 C24.40423945 33.97518102 24.49373476 50.99259943 18 68 C15.39029774 67.42930078 13.76388309 66.85602627 11.4375 65.4375 C9.04095169 63.74600749 9.04095169 63.74600749 6 64 C5.34 63.34 4.68 62.68 4 62 C3.360625 61.690625 2.72125 61.38125 2.0625 61.0625 C-0.18791835 59.90319358 -1.42300539 58.98010278 -3 57 C-3.36328125 54.6875 -3.36328125 54.6875 -3.3125 52 C-3.30863281 51.13375 -3.30476563 50.2675 -3.30078125 49.375 C-3.0497039 46.55771645 -2.59829063 44.01901082 -2.01953125 41.26171875 C-0.4900954 33.17824273 -0.53489186 25.0127873 -0.375 16.8125 C-0.33672897 15.17641359 -0.29767229 13.54034535 -0.2578125 11.90429688 C-0.162825 7.93634919 -0.07844144 3.96830784 0 0 Z " fill="#FEF17E" transform="translate(326,155)"/>
<path d="M0 0 C16.61940405 1.86777706 32.44952312 9.09438141 47 17 C47.90806396 17.48122314 47.90806396 17.48122314 48.83447266 17.97216797 C62.85555376 25.41956713 74.597633 35.05709708 86 46 C86.48243164 46.46051758 86.96486328 46.92103516 87.46191406 47.39550781 C93.86072391 53.53612762 99.64676623 59.92882302 105 67 C104.34 67.66 103.68 68.32 103 69 C103 68.34 103 67.68 103 67 C102.01 67 101.02 67 100 67 C99.7525 66.195625 99.505 65.39125 99.25 64.5625 C98.8375 63.716875 98.425 62.87125 98 62 C95.98491642 61.26676204 95.98491642 61.26676204 94 61 C93.67 60.34 93.34 59.68 93 59 C91.515 58.505 91.515 58.505 90 58 C90 57.34 90 56.68 90 56 C88.6078125 55.8453125 88.6078125 55.8453125 87.1875 55.6875 C83.96745642 54.9929808 82.97420135 54.52259061 81 52 C80.01 52.495 80.01 52.495 79 53 C77.5 51.625 77.5 51.625 76 50 C76 49.34 76 48.68 76 48 C74.515 48.495 74.515 48.495 73 49 C67.44444444 44.88888889 67.44444444 44.88888889 66 42 C64.515 42.495 64.515 42.495 63 43 C62.443125 42.38125 61.88625 41.7625 61.3125 41.125 C59.13211728 38.86654671 59.13211728 38.86654671 56.3125 37.9375 C55.549375 37.628125 54.78625 37.31875 54 37 C53.67 36.01 53.34 35.02 53 34 C51.10820797 33.3185177 51.10820797 33.3185177 49 33 C48.01 32.67 47.02 32.34 46 32 C46 31.34 46 30.68 46 30 C45.01 30.33 44.02 30.66 43 31 C42.34 30.01 41.68 29.02 41 28 C40.01 28 39.02 28 38 28 C37.34 27.01 36.68 26.02 36 25 C35.01 25 34.02 25 33 25 C30.3125 22.5 30.3125 22.5 28 20 C27.01 20.33 26.02 20.66 25 21 C24.34 19.35 23.68 17.7 23 16 C21.68 16 20.36 16 19 16 C19 15.34 19 14.68 19 14 C18.27941406 13.73960938 17.55882812 13.47921875 16.81640625 13.2109375 C13.89168661 11.95342975 11.53299712 10.46230708 8.9375 8.625 C7.68259766 7.74714844 7.68259766 7.74714844 6.40234375 6.8515625 C4.05814902 5.04481729 2.00437229 3.1756466 0 1 C0 0.67 0 0.34 0 0 Z " fill="#FCD544" transform="translate(212,3)"/>
<path d="M0 0 C5.10863896 -0.0246501 10.21724359 -0.04283607 15.32592773 -0.05493164 C17.06519168 -0.05997204 18.80445136 -0.0668043 20.54370117 -0.07543945 C23.03825937 -0.08751792 25.53276173 -0.09323108 28.02734375 -0.09765625 C28.80963852 -0.10281754 29.59193329 -0.10797882 30.39793396 -0.11329651 C32.26567114 -0.11349226 34.13329204 -0.06199694 36 0 C37 1 37 1 37.09765625 3.50390625 C37.06510417 6.3359375 37.03255208 9.16796875 37 12 C33.37 12 29.74 12 26 12 C26 22.89 26 33.78 26 45 C25.67 45 25.34 45 25 45 C24.505 42.525 24.505 42.525 24 40 C23.01 40 22.02 40 21 40 C20.319375 39.0409375 20.319375 39.0409375 19.625 38.0625 C17.53957042 35.4156086 16.22346435 35.62896865 13 35 C10.32085195 33.2139013 9.18841672 31.91068084 8.53125 28.734375 C8.2768015 26.48674656 8.0965609 24.25952507 8 22 C7.67 23.32 7.34 24.64 7 26 C3.8125 26.8125 3.8125 26.8125 0 27 C-2.9375 24.9375 -2.9375 24.9375 -5 22 C-5.49824794 17.1676775 -4.35495735 13.74893966 -2.5 9.3125 C-0.55083429 4.79767595 -0.55083429 4.79767595 0 0 Z " fill="#FEF381" transform="translate(231,131)"/>
<path d="M0 0 C0.33 0.66 0.66 1.32 1 2 C0.06421005 4.35981813 -0.93347808 6.69631264 -2 9 C0.22308063 10.48907295 2.45268345 11.96622717 4.6875 13.4375 C5.31333984 13.85837891 5.93917969 14.27925781 6.58398438 14.71289062 C10.03381677 16.97063434 12.8029063 18.55862303 17 19 C16.4029645 22.99615759 15.09256002 26.49798473 13.62524414 30.2331543 C9.54147853 40.64936145 6.98217177 51.0057181 5 62 C4.34 61.01 3.68 60.02 3 59 C2.34 59 1.68 59 1 59 C1 58.34 1 57.68 1 57 C0.278125 56.73316406 -0.44375 56.46632812 -1.1875 56.19140625 C-4.89074885 54.62266889 -8.11838857 52.50090481 -11.5 50.33984375 C-14.04300701 48.97695093 -16.15961179 48.41084187 -19 48 C-15.09831582 31.05847661 -8.76853661 15.01611895 0 0 Z " fill="#EABE2F" transform="translate(21,90)"/>
<path d="M0 0 C0.29583984 0.86044922 0.29583984 0.86044922 0.59765625 1.73828125 C2.5513652 4.88924917 5.31011466 6.36575532 8.4375 8.1875 C9.02337891 8.54263672 9.60925781 8.89777344 10.21289062 9.26367188 C12.78444117 10.80193197 15.14848558 12.04949519 18 13 C19.00390625 14.6640625 19.00390625 14.6640625 19 17 C17.39629533 19.333221 15.82731624 21.29342129 13.9375 23.375 C13.13940918 24.28016357 13.13940918 24.28016357 12.32519531 25.20361328 C6.17673039 32.08640903 -0.3891526 38.56518108 -7 45 C-14.16998151 40.89940144 -21.19808348 36.68920003 -28 32 C-27.15769795 27.27589422 -24.16918208 25.09054272 -20.6875 22.0625 C-16.73516198 18.58286686 -13.20956199 15.20712855 -10 11 C-8.33333333 9.33333333 -6.66666667 7.66666667 -5 6 C-3.29192796 4.0305836 -1.64604284 2.02228121 0 0 Z " fill="#EABE2F" transform="translate(297,264)"/>
<path d="M0 0 C0.78375 0.61875 1.5675 1.2375 2.375 1.875 C3.70658814 2.87732271 5.03964102 3.87770658 6.375 4.875 C5.75753906 5.42027344 5.14007813 5.96554688 4.50390625 6.52734375 C1.77563722 8.95662439 -0.9271115 11.41203999 -3.625 13.875 C-4.3778125 14.54789063 -5.130625 15.22078125 -5.90625 15.9140625 C-11.38826333 21.05841559 -15.53638324 26.77348309 -19.64428711 33.02758789 C-22.29143044 37.04460932 -25.08739868 40.71442409 -28.31616211 44.28491211 C-30.21973005 46.59752878 -31.4268641 49.14591267 -32.625 51.875 C-37.06134129 51.36798957 -39.25237086 49.70914213 -42.625 46.875 C-37.38955177 36.42885743 -31.96663076 27.00497671 -24.625 17.875 C-23.3741533 16.22981007 -22.12408824 14.58402541 -20.875 12.9375 C-13.97911696 4.14644356 -13.97911696 4.14644356 -8.625 1.875 C-7.655625 1.276875 -6.68625 0.67875 -5.6875 0.0625 C-2.625 -1.125 -2.625 -1.125 0 0 Z " fill="#F5DB5C" transform="translate(86.625,68.125)"/>
<path d="M0 0 C0.28875 0.639375 0.5775 1.27875 0.875 1.9375 C1.82823451 4.15206079 1.82823451 4.15206079 4 5 C4.66 5.33 5.32 5.66 6 6 C6 6.66 6 7.32 6 8 C6.99 7.67 7.98 7.34 9 7 C10.23551121 14.10063916 9.66172117 18.8016472 7.125 25.5 C6.80909912 26.36294678 6.49319824 27.22589355 6.16772461 28.11499023 C1.23140876 41.15849019 -5.33351948 53.0665382 -14 64 C-20.58928571 63.08035714 -20.58928571 63.08035714 -23 60 C-22 57.5 -22 57.5 -21 55 C-20.70480469 54.22140625 -20.40960938 53.4428125 -20.10546875 52.640625 C-18.97353463 49.93678238 -17.64163994 47.4812857 -16.1875 44.9375 C-12.98031125 39.12252429 -10.43830691 33.16977338 -8 27 C-7.56558594 25.9584375 -7.13117188 24.916875 -6.68359375 23.84375 C-3.48903708 15.98609419 -1.53694861 8.33450992 0 0 Z " fill="#F5DB5C" transform="translate(304,197)"/>
<path d="M0 0 C-0.66 0.33 -1.32 0.66 -2 1 C-2 1.66 -2 2.32 -2 3 C-1.236875 3.268125 -0.47375 3.53625 0.3125 3.8125 C2.87380884 4.94424112 4.19692938 5.91223401 6 8 C3.73690707 11.39463939 3.0946699 11.55880662 -0.625 12.75 C-14.39511555 17.52004003 -27.82939048 23.37462139 -39.1328125 32.7734375 C-41.40840503 34.2682828 -42.4638884 34.26961351 -45.125 33.875 C-49 33 -49 33 -51 30 C-52.98 30.99 -54.96 31.98 -57 33 C-50.15560677 17.57507476 -25.46873073 8.15751858 -11 2 C-7.09407808 0.55467588 -4.16910178 -0.24524128 0 0 Z " fill="#FDEE7A" transform="translate(135,38)"/>
<path d="M0 0 C3.81051702 0.67244418 7.40215196 1.56086078 11 3 C20.36755401 17.05133102 14.72217176 45.38405279 11.62109375 61.01953125 C11.41613281 62.00308594 11.21117187 62.98664063 11 64 C10.34 64 9.68 64 9 64 C8.938125 63.38125 8.87625 62.7625 8.8125 62.125 C8.17948312 59.74397155 8.17948312 59.74397155 5.5625 58.8125 C4.716875 58.544375 3.87125 58.27625 3 58 C2.34 57.67 1.68 57.34 1 57 C0.14858775 52.89774096 -0.02272886 49.99148346 1 46 C2.43595379 34.55588345 1.64304881 23.58511692 0.47265625 12.15234375 C0.06234871 8.07086344 -0.09666014 4.09952729 0 0 Z " fill="#FDEF7A" transform="translate(304,145)"/>
<path d="M0 0 C0.33 0 0.66 0 1 0 C1.061875 0.78375 1.12375 1.5675 1.1875 2.375 C1.455625 3.24125 1.72375 4.1075 2 5 C4.32854463 6.19838209 4.32854463 6.19838209 7 7 C8.36365283 7.95824253 9.70794169 8.94721175 11 10 C11.66 9.34 12.32 8.68 13 8 C13.495 15.92 13.495 15.92 14 24 C17.63 24 21.26 24 25 24 C25 28.29 25 32.58 25 37 C20.23268509 37.79055976 15.79824249 38.0719297 10.97265625 37.87890625 C9.04389648 37.80639648 9.04389648 37.80639648 7.07617188 37.73242188 C5.73827544 37.67591872 4.40038487 37.6192764 3.0625 37.5625 C1.69728806 37.50918787 0.33205364 37.45644834 -1.03320312 37.40429688 C-4.35573307 37.2751526 -7.67792161 37.1402083 -11 37 C-11.19466332 35.20909747 -11.38051213 33.41723495 -11.5625 31.625 C-11.66691406 30.62726563 -11.77132812 29.62953125 -11.87890625 28.6015625 C-12 26 -12 26 -11 24 C-7.37 24 -3.74 24 0 24 C0 16.08 0 8.16 0 0 Z " fill="#EBC133" transform="translate(166,185)"/>
<path d="M0 0 C4.02889799 1.61155919 7.55809438 3.30587776 11.3125 5.4375 C12.38113281 6.03433594 13.44976562 6.63117188 14.55078125 7.24609375 C15.76314453 8.11427734 15.76314453 8.11427734 17 9 C17 9.99 17 10.98 17 12 C20.63 12 24.26 12 28 12 C28 15.63 28 19.26 28 23 C14.8 23 1.6 23 -12 23 C-12 19.04 -12 15.08 -12 11 C-8.04 11 -4.08 11 0 11 C0 7.37 0 3.74 0 0 Z " fill="#E5B119" transform="translate(105,198)"/>
<path d="M0 0 C0.66 0.33 1.32 0.66 2 1 C1.56429687 1.85078125 1.12859375 2.7015625 0.6796875 3.578125 C-6.25617194 17.53015177 -11.17088451 32.48405484 -13 48 C-17.28315451 48.15836874 -19.50371657 47.59723912 -23 45 C-23 44.34 -23 43.68 -23 43 C-23.99 42.67 -24.98 42.34 -26 42 C-19.10371801 12.55776864 -19.10371801 12.55776864 -15 6 C-12 5 -12 5 -9.95703125 5.77734375 C-9.24933594 6.16019531 -8.54164062 6.54304688 -7.8125 6.9375 C-7.09707031 7.31777344 -6.38164063 7.69804688 -5.64453125 8.08984375 C-5.10183594 8.39019531 -4.55914062 8.69054687 -4 9 C-3.71125 8.071875 -3.4225 7.14375 -3.125 6.1875 C-2 3 -2 3 0 0 Z " fill="#EBBF2F" transform="translate(58,111)"/>
<path d="M0 0 C0.66 0 1.32 0 2 0 C0.66666667 3.33333333 -0.66666667 6.66666667 -2 10 C0.38573379 11.89213369 2.07175348 13.02391783 5 14 C1.58733276 21.39141672 -4.85058535 26.95877828 -10.5 32.6875 C-11.03343018 33.23398193 -11.56686035 33.78046387 -12.11645508 34.34350586 C-15.81131366 38.0462462 -19.67452515 41.05627406 -24 44 C-24.33 43.34 -24.66 42.68 -25 42 C-25.99 41.67 -26.98 41.34 -28 41 C-28.99 40.67 -29.98 40.34 -31 40 C-32 38 -32 38 -32 35 C-29.29205593 31.91595258 -26.82352106 29.5577308 -23 28 C-23 27.34 -23 26.68 -23 26 C-21.6015625 24.66015625 -21.6015625 24.66015625 -19.625 23.0625 C-12.90315841 17.33162263 -6.56891057 10.91387334 -2 3.3125 C-1.34 2.219375 -0.68 1.12625 0 0 Z " fill="#EABE2E" transform="translate(284,247)"/>
<path d="M0 0 C1.65 0 3.3 0 5 0 C5.33 0.66 5.66 1.32 6 2 C5.34 2 4.68 2 4 2 C4 2.99 4 3.98 4 5 C6.2269175 6.70196856 6.2269175 6.70196856 9 8.1875 C10.65 9.115625 12.3 10.04375 14 11 C13.67 16.61 13.34 22.22 13 28 C8.71 28 4.42 28 0 28 C-0.73002867 24.34985663 -1.12795441 21.60998566 -1.1328125 17.98828125 C-1.13410156 17.06595703 -1.13539062 16.14363281 -1.13671875 15.19335938 C-1.13285156 14.24267578 -1.12898438 13.29199219 -1.125 12.3125 C-1.12886719 11.35021484 -1.13273437 10.38792969 -1.13671875 9.39648438 C-1.13542969 8.47802734 -1.13414063 7.55957031 -1.1328125 6.61328125 C-1.13168457 5.77579346 -1.13055664 4.93830566 -1.12939453 4.07543945 C-1 2 -1 2 0 0 Z " fill="#ECC439" transform="translate(75,131)"/>
<path d="M0 0 C0.66 0 1.32 0 2 0 C2.268125 1.010625 2.53625 2.02125 2.8125 3.0625 C5.48483629 9.41413989 12.7957525 12.6524603 18.8515625 15.19921875 C19.91503906 15.59560547 19.91503906 15.59560547 21 16 C20.67 17.32 20.34 18.64 20 20 C15.38 20 10.76 20 6 20 C4 14 4 14 4 10 C3.34 9.67 2.68 9.34 2 9 C1.3671875 6.93359375 1.3671875 6.93359375 0.875 4.4375 C0.70742187 3.61121094 0.53984375 2.78492188 0.3671875 1.93359375 C0.24601563 1.29550781 0.12484375 0.65742188 0 0 Z " fill="#EEC83D" transform="translate(196,202)"/>
<path d="M0 0 C0.33 0 0.66 0 1 0 C1 4.29 1 8.58 1 13 C-4.07849314 14.69283105 -6.80316046 15.2558692 -11.9375 15.265625 C-13.24460937 15.26820313 -14.55171875 15.27078125 -15.8984375 15.2734375 C-16.57229492 15.26924805 -17.24615234 15.26505859 -17.94042969 15.26074219 C-19.99444103 15.25002899 -22.04757796 15.26066763 -24.1015625 15.2734375 C-25.40867187 15.27085937 -26.71578125 15.26828125 -28.0625 15.265625 C-29.24972656 15.26336914 -30.43695313 15.26111328 -31.66015625 15.25878906 C-35.07364755 14.99429339 -37.81382082 14.22088373 -41 13 C-41 12.67 -41 12.34 -41 12 C-27.47 12 -13.94 12 0 12 C0 8.04 0 4.08 0 0 Z " fill="#F2CC40" transform="translate(134,209)"/>
<path d="M0 0 C0.66 0 1.32 0 2 0 C2.72795788 5.0621071 3.12132248 9.87337554 2.5625 14.96875 C1.67414208 24.70389125 1.6340202 34.48174281 1.4375 44.25 C1.39421745 46.26693435 1.35060039 48.28386155 1.30664062 50.30078125 C1.20056979 55.20044692 1.09902793 60.10018714 1 65 C0.67 65 0.34 65 0 65 C0 43.55 0 22.1 0 0 Z " fill="#F2CB3E" transform="translate(104,144)"/>
<path d="M0 0 C0.33 0 0.66 0 1 0 C1 1.65 1 3.3 1 5 C2.66554932 4.98428955 2.66554932 4.98428955 4.36474609 4.96826172 C8.47587879 4.93212051 12.58699739 4.90912104 16.69824219 4.89013672 C18.47919067 4.88006569 20.26012257 4.86640815 22.04101562 4.84912109 C24.59769783 4.82492087 27.15416185 4.81352816 29.7109375 4.8046875 C30.90944839 4.78920364 30.90944839 4.78920364 32.13217163 4.77340698 C34.0895722 4.77300774 36.04643077 4.87758931 38 5 C38.66 5.66 39.32 6.32 40 7 C36.09139187 8.30286938 32.45657086 8.01353276 28.39453125 7.87890625 C27.13572395 7.84348976 27.13572395 7.84348976 25.85148621 7.80735779 C23.1716488 7.73079724 20.49210593 7.64674019 17.8125 7.5625 C15.99545711 7.50927169 14.17839986 7.45653134 12.36132812 7.40429688 C7.90736565 7.27519238 3.45365278 7.13936429 -1 7 C-1.625 4.625 -1.625 4.625 -2 2 C-1.34 1.34 -0.68 0.68 0 0 Z " fill="#F2CD42" transform="translate(229,215)"/>
<path d="M0 0 C0.33 0 0.66 0 1 0 C1.33 7.26 1.66 14.52 2 22 C5.63 22 9.26 22 13 22 C13 22.33 13 22.66 13 23 C8.71 23 4.42 23 0 23 C-0.67715259 19.61423706 -1.12730283 17.14809317 -1.1328125 13.828125 C-1.13410156 13.08175781 -1.13539062 12.33539063 -1.13671875 11.56640625 C-1.13091797 10.41978516 -1.13091797 10.41978516 -1.125 9.25 C-1.12886719 8.47011719 -1.13273437 7.69023437 -1.13671875 6.88671875 C-1.12670133 1.12670133 -1.12670133 1.12670133 0 0 Z " fill="#EEC02A" transform="translate(75,136)"/>
<path d="M0 0 C0.33 0 0.66 0 1 0 C1.33 3.96 1.66 7.92 2 12 C-1.3 12.33 -4.6 12.66 -8 13 C-8.33 16.3 -8.66 19.6 -9 23 C-9.66 23 -10.32 23 -11 23 C-11.19477739 21.37585622 -11.38059458 19.75063577 -11.5625 18.125 C-11.66691406 17.22007812 -11.77132812 16.31515625 -11.87890625 15.3828125 C-12 13 -12 13 -11 11 C-7.37 11 -3.74 11 0 11 C0 7.37 0 3.74 0 0 Z " fill="#ECBC24" transform="translate(166,198)"/>
<path d="M0 0 C0.66 0 1.32 0 2 0 C1.34206835 1.67013418 0.67276716 3.3357865 0 5 C-0.680625 6.85625 -0.680625 6.85625 -1.375 8.75 C-3 12 -3 12 -5.1875 12.9375 C-5.785625 12.958125 -6.38375 12.97875 -7 13 C-7 9.19794574 -5.7999031 7.88843439 -3.625 4.8125 C-2.99851562 3.91144531 -2.37203125 3.01039063 -1.7265625 2.08203125 C-1.15679687 1.39496094 -0.58703125 0.70789063 0 0 Z " fill="#F1CB40" transform="translate(284,247)"/>
<path d="M0 0 C0.66 0.33 1.32 0.66 2 1 C0.02 4.63 -1.96 8.26 -4 12 C-4.66 11.67 -5.32 11.34 -6 11 C-6 10.34 -6 9.68 -6 9 C-5.34 9 -4.68 9 -4 9 C-3.71125 8.071875 -3.4225 7.14375 -3.125 6.1875 C-2 3 -2 3 0 0 Z " fill="#F1CA3E" transform="translate(58,111)"/>
<path d="M0 0 C1 2 1 2 0.44140625 3.875 C0.15136719 4.57625 -0.13867188 5.2775 -0.4375 6 C-1.66557525 8.90915074 -1.66557525 8.90915074 -2 12 C-2.99 12.33 -3.98 12.66 -5 13 C-4.48474397 7.71862571 -2.74522883 4.42778844 0 0 Z " fill="#F0CB41" transform="translate(21,90)"/>
<path d="M0 0 C1.65 0 3.3 0 5 0 C5.33 0.66 5.66 1.32 6 2 C5.34 2 4.68 2 4 2 C4 2.66 4 3.32 4 4 C2.35 4.33 0.7 4.66 -1 5 C-0.67 3.35 -0.34 1.7 0 0 Z " fill="#F0CB42" transform="translate(75,131)"/>
<path d="M0 0 C0.66 0.66 1.32 1.32 2 2 C-1.465 4.97 -1.465 4.97 -5 8 C-5.66 7.67 -6.32 7.34 -7 7 C-4.69 4.69 -2.38 2.38 0 0 Z " fill="#EFC738" transform="translate(285,278)"/>
<path d="M0 0 C0 3 0 3 -2.5 5.6875 C-3.325 6.450625 -4.15 7.21375 -5 8 C-5.66 7.67 -6.32 7.34 -7 7 C-4.69 4.69 -2.38 2.38 0 0 Z " fill="#F0C737" transform="translate(271,264)"/>
<path d="M0 0 C3.25543229 0.34879632 4.01873107 1.02133261 6.25 3.5625 C6.8275 4.366875 7.405 5.17125 8 6 C5 6 5 6 3.61328125 4.6875 C2.40885417 3.125 1.20442708 1.5625 0 0 Z " fill="#F5D54D" transform="translate(277,63)"/>
<path d="" fill="#F2C93A" transform="translate(0,0)"/>
<path d="" fill="#F2C93A" transform="translate(0,0)"/>
</svg>
